# xmcd CD database file
#
# Track frame offsets:
#	150
#	18672
#	38888
#	60534
#	68362
#	95069
#	133932
#	153863
#	173847
#	202809
#	218836
#	239607
#	254989
#	300557
#	313703
#
# Disc length: 4349 seconds
#
# Revision: 0
# Processed by: cddbd v1.5.2PL0 Copyright (c) Steve Scherf et al.
# Submitted via: CDex 1.70beta2
#
DISCID=d510fb0f
DTITLE=Philharmonic Wind Orchestra and Marc Reift Orchestra - Clarino Vol.11- Cine Magic
DYEAR=2008
DGENRE=Blasmusik
TTITLE0=Ben Hur
TTITLE1=Lawrence Of Arabia
TTITLE2=Hymn To Red October
TTITLE3=Benny Hill (Yackety Sax)
TTITLE4=The Rock
TTITLE5=The Last Of The Mohicans
TTITLE6=Back To The Future
TTITLE7=Bodyguard (I Will Always Love You)
TTITLE8=Gladiator
TTITLE9=Mission Impossible
TTITLE10=Robin Hood
TTITLE11=Out Of Africa
TTITLE12=Judge Dreed
TTITLE13=La Soupe Aux Choux
TTITLE14=The Muppet Show Theme
EXTD=YEAR: 2008
EXTT0=
EXTT1=
EXTT2=
EXTT3=
EXTT4=
EXTT5=
EXTT6=
EXTT7=
EXTT8=
EXTT9=
EXTT10=
EXTT11=
EXTT12=
EXTT13=
EXTT14=
PLAYORDER=
